<?xml version="1.0" standalone="no"?><!DOCTYPE svg PUBLIC "-//W3C//DTD SVG 1.1//EN" "http://www.w3.org/Graphics/SVG/1.1/DTD/svg11.dtd">
<svg width="354.7" height="337.9" version="1.1" xmlns="http://www.w3.org/2000/svg">
<text xml:space="preserve" x="168.7" y="113.9" font-family="Calibri" font-size="8" text-anchor="end">c1_AC087430.1</text>
<text xml:space="preserve" x="168.7" y="119.9" font-family="Calibri" font-size="8" text-anchor="end">c1_AL353770.4</text>
<text xml:space="preserve" x="168.7" y="125.9" font-family="Calibri" font-size="8" text-anchor="end">c1_AC092167.1</text>
<text xml:space="preserve" x="168.7" y="131.9" font-family="Calibri" font-size="8" text-anchor="end">c1_MUC15</text>
<text xml:space="preserve" x="168.7" y="137.9" font-family="Calibri" font-size="8" text-anchor="end">c1_CNTF</text>
<text xml:space="preserve" x="179.7" y="103.9" font-family="Calibri" font-size="8" transform="rotate(270 179.7 103.9)">c2</text>
<text xml:space="preserve" x="187.7" y="103.9" font-family="Calibri" font-size="8" transform="rotate(270 187.7 103.9)">c4</text>
<text xml:space="preserve" x="195.7" y="103.9" font-family="Calibri" font-size="8" transform="rotate(270 195.7 103.9)">c3</text>
<text xml:space="preserve" x="203.7" y="103.9" font-family="Calibri" font-size="8" transform="rotate(270 203.7 103.9)">Anc3</text>
<text xml:space="preserve" x="211.7" y="103.9" font-family="Calibri" font-size="8" transform="rotate(270 211.7 103.9)">Anc2</text>
<text xml:space="preserve" x="219.7" y="103.9" font-family="Calibri" font-size="8" transform="rotate(270 219.7 103.9)">c1</text>
<text xml:space="preserve" x="227.7" y="103.9" font-family="Calibri" font-size="8" transform="rotate(270 227.7 103.9)">c5</text>
<text xml:space="preserve" x="235.7" y="103.9" font-family="Calibri" font-size="8" transform="rotate(270 235.7 103.9)">Anc4</text>
<text xml:space="preserve" x="243.7" y="103.9" font-family="Calibri" font-size="8" transform="rotate(270 243.7 103.9)">Anc1</text>
<text xml:space="preserve" x="260.7" y="103.9" font-family="Calibri" font-size="8" transform="rotate(270 260.7 103.9)">c2_Exp0</text>
<text xml:space="preserve" x="276.7" y="103.9" font-family="Calibri" font-size="8" transform="rotate(270 276.7 103.9)">c4_Exp0</text>
<text xml:space="preserve" x="292.7" y="103.9" font-family="Calibri" font-size="8" transform="rotate(270 292.7 103.9)">c3_Exp0</text>
<text xml:space="preserve" x="308.7" y="103.9" font-family="Calibri" font-size="8" transform="rotate(270 308.7 103.9)">c1_Exp0</text>
<text xml:space="preserve" x="324.7" y="103.9" font-family="Calibri" font-size="8" transform="rotate(270 324.7 103.9)">c5_Exp0</text>
<polygon points="172.7,107.9 180.7,107.9 180.7,113.9 172.7,113.9" fill="rgb(0,205,0)"/><text xml:space="preserve" x="176.7" y="113.733" font-family="Calibri" font-size="7.5" fill="rgb(255,255,255)" text-anchor="middle">1</text>
<polygon points="180.7,107.9 188.7,107.9 188.7,113.9 180.7,113.9" fill="rgb(205,0,0)"/><text xml:space="preserve" x="184.7" y="113.733" font-family="Calibri" font-size="7.5" fill="rgb(255,255,255)" text-anchor="middle">3</text>
<polygon points="188.7,107.9 196.7,107.9 196.7,113.9 188.7,113.9" fill="rgb(0,205,0)"/><text xml:space="preserve" x="192.7" y="113.733" font-family="Calibri" font-size="7.5" fill="rgb(255,255,255)" text-anchor="middle">1</text>
<polygon points="196.7,107.9 204.7,107.9 204.7,113.9 196.7,113.9" fill="rgb(0,205,0)"/><text xml:space="preserve" x="200.7" y="113.733" font-family="Calibri" font-size="7.5" fill="rgb(255,255,255)" text-anchor="middle">1</text>
<polygon points="204.7,107.9 212.7,107.9 212.7,113.9 204.7,113.9" fill="rgb(0,205,0)"/><text xml:space="preserve" x="208.7" y="113.733" font-family="Calibri" font-size="7.5" fill="rgb(255,255,255)" text-anchor="middle">1</text>
<polygon points="212.7,107.9 220.7,107.9 220.7,113.9 212.7,113.9" fill="rgb(0,205,0)"/><text xml:space="preserve" x="216.7" y="113.733" font-family="Calibri" font-size="7.5" fill="rgb(255,255,255)" text-anchor="middle">1</text>
<polygon points="220.7,107.9 228.7,107.9 228.7,113.9 220.7,113.9" fill="rgb(0,205,0)"/><text xml:space="preserve" x="224.7" y="113.733" font-family="Calibri" font-size="7.5" fill="rgb(255,255,255)" text-anchor="middle">1</text>
<polygon points="228.7,107.9 236.7,107.9 236.7,113.9 228.7,113.9" fill="rgb(0,205,0)"/><text xml:space="preserve" x="232.7" y="113.733" font-family="Calibri" font-size="7.5" fill="rgb(255,255,255)" text-anchor="middle">1</text>
<polygon points="236.7,107.9 244.7,107.9 244.7,113.9 236.7,113.9" fill="rgb(0,205,0)"/><text xml:space="preserve" x="240.7" y="113.733" font-family="Calibri" font-size="7.5" fill="rgb(255,255,255)" text-anchor="middle">1</text>
<polygon points="254.7,107.9 260.7,107.9 260.7,113.9 254.7,113.9" fill="rgb(0,255,0)"/>
<polygon points="270.7,107.9 276.7,107.9 276.7,113.9 270.7,113.9" fill="rgb(255,0,0)"/>
<polygon points="286.7,107.9 292.7,107.9 292.7,113.9 286.7,113.9" fill="rgb(0,255,0)"/>
<polygon points="302.7,107.9 308.7,107.9 308.7,113.9 302.7,113.9" fill="rgb(0,255,0)"/>
<polygon points="318.7,107.9 324.7,107.9 324.7,113.9 318.7,113.9" fill="rgb(0,255,0)"/>
<polygon points="172.7,113.9 180.7,113.9 180.7,119.9 172.7,119.9" fill="rgb(0,205,0)"/><text xml:space="preserve" x="176.7" y="119.733" font-family="Calibri" font-size="7.5" fill="rgb(255,255,255)" text-anchor="middle">1</text>
<polygon points="180.7,113.9 188.7,113.9 188.7,119.9 180.7,119.9" fill="rgb(205,0,0)"/><text xml:space="preserve" x="184.7" y="119.733" font-family="Calibri" font-size="7.5" fill="rgb(255,255,255)" text-anchor="middle">3</text>
<polygon points="188.7,113.9 196.7,113.9 196.7,119.9 188.7,119.9" fill="rgb(0,205,0)"/><text xml:space="preserve" x="192.7" y="119.733" font-family="Calibri" font-size="7.5" fill="rgb(255,255,255)" text-anchor="middle">1</text>
<polygon points="196.7,113.9 204.7,113.9 204.7,119.9 196.7,119.9" fill="rgb(0,205,0)"/><text xml:space="preserve" x="200.7" y="119.733" font-family="Calibri" font-size="7.5" fill="rgb(255,255,255)" text-anchor="middle">1</text>
<polygon points="204.7,113.9 212.7,113.9 212.7,119.9 204.7,119.9" fill="rgb(0,205,0)"/><text xml:space="preserve" x="208.7" y="119.733" font-family="Calibri" font-size="7.5" fill="rgb(255,255,255)" text-anchor="middle">1</text>
<polygon points="212.7,113.9 220.7,113.9 220.7,119.9 212.7,119.9" fill="rgb(0,205,0)"/><text xml:space="preserve" x="216.7" y="119.733" font-family="Calibri" font-size="7.5" fill="rgb(255,255,255)" text-anchor="middle">1</text>
<polygon points="220.7,113.9 228.7,113.9 228.7,119.9 220.7,119.9" fill="rgb(0,205,0)"/><text xml:space="preserve" x="224.7" y="119.733" font-family="Calibri" font-size="7.5" fill="rgb(255,255,255)" text-anchor="middle">1</text>
<polygon points="228.7,113.9 236.7,113.9 236.7,119.9 228.7,119.9" fill="rgb(0,205,0)"/><text xml:space="preserve" x="232.7" y="119.733" font-family="Calibri" font-size="7.5" fill="rgb(255,255,255)" text-anchor="middle">1</text>
<polygon points="236.7,113.9 244.7,113.9 244.7,119.9 236.7,119.9" fill="rgb(0,205,0)"/><text xml:space="preserve" x="240.7" y="119.733" font-family="Calibri" font-size="7.5" fill="rgb(255,255,255)" text-anchor="middle">1</text>
<polygon points="254.7,113.9 260.7,113.9 260.7,119.9 254.7,119.9" fill="rgb(0,255,0)"/>
<polygon points="270.7,113.9 276.7,113.9 276.7,119.9 270.7,119.9" fill="rgb(255,0,0)"/>
<polygon points="286.7,113.9 292.7,113.9 292.7,119.9 286.7,119.9" fill="rgb(0,255,0)"/>
<polygon points="302.7,113.9 308.7,113.9 308.7,119.9 302.7,119.9" fill="rgb(0,255,0)"/>
<polygon points="318.7,113.9 324.7,113.9 324.7,119.9 318.7,119.9" fill="rgb(0,255,0)"/>
<polygon points="172.7,119.9 180.7,119.9 180.7,125.9 172.7,125.9" fill="rgb(0,205,0)"/><text xml:space="preserve" x="176.7" y="125.733" font-family="Calibri" font-size="7.5" fill="rgb(255,255,255)" text-anchor="middle">1</text>
<polygon points="180.7,119.9 188.7,119.9 188.7,125.9 180.7,125.9" fill="rgb(205,0,0)"/><text xml:space="preserve" x="184.7" y="125.733" font-family="Calibri" font-size="7.5" fill="rgb(255,255,255)" text-anchor="middle">3</text>
<polygon points="188.7,119.9 196.7,119.9 196.7,125.9 188.7,125.9" fill="rgb(0,205,0)"/><text xml:space="preserve" x="192.7" y="125.733" font-family="Calibri" font-size="7.5" fill="rgb(255,255,255)" text-anchor="middle">1</text>
<polygon points="196.7,119.9 204.7,119.9 204.7,125.9 196.7,125.9" fill="rgb(0,205,0)"/><text xml:space="preserve" x="200.7" y="125.733" font-family="Calibri" font-size="7.5" fill="rgb(255,255,255)" text-anchor="middle">1</text>
<polygon points="204.7,119.9 212.7,119.9 212.7,125.9 204.7,125.9" fill="rgb(0,205,0)"/><text xml:space="preserve" x="208.7" y="125.733" font-family="Calibri" font-size="7.5" fill="rgb(255,255,255)" text-anchor="middle">1</text>
<polygon points="212.7,119.9 220.7,119.9 220.7,125.9 212.7,125.9" fill="rgb(0,205,0)"/><text xml:space="preserve" x="216.7" y="125.733" font-family="Calibri" font-size="7.5" fill="rgb(255,255,255)" text-anchor="middle">1</text>
<polygon points="220.7,119.9 228.7,119.9 228.7,125.9 220.7,125.9" fill="rgb(0,205,0)"/><text xml:space="preserve" x="224.7" y="125.733" font-family="Calibri" font-size="7.5" fill="rgb(255,255,255)" text-anchor="middle">1</text>
<polygon points="228.7,119.9 236.7,119.9 236.7,125.9 228.7,125.9" fill="rgb(0,205,0)"/><text xml:space="preserve" x="232.7" y="125.733" font-family="Calibri" font-size="7.5" fill="rgb(255,255,255)" text-anchor="middle">1</text>
<polygon points="236.7,119.9 244.7,119.9 244.7,125.9 236.7,125.9" fill="rgb(0,205,0)"/><text xml:space="preserve" x="240.7" y="125.733" font-family="Calibri" font-size="7.5" fill="rgb(255,255,255)" text-anchor="middle">1</text>
<polygon points="254.7,119.9 260.7,119.9 260.7,125.9 254.7,125.9" fill="rgb(0,255,0)"/>
<polygon points="270.7,119.9 276.7,119.9 276.7,125.9 270.7,125.9" fill="rgb(220,0,0)"/>
<polygon points="286.7,119.9 292.7,119.9 292.7,125.9 286.7,125.9" fill="rgb(0,255,0)"/>
<polygon points="302.7,119.9 308.7,119.9 308.7,125.9 302.7,125.9" fill="rgb(0,255,0)"/>
<polygon points="318.7,119.9 324.7,119.9 324.7,125.9 318.7,125.9" fill="rgb(0,163,0)"/>
<polygon points="172.7,125.9 180.7,125.9 180.7,131.9 172.7,131.9" fill="rgb(0,205,0)"/><text xml:space="preserve" x="176.7" y="131.733" font-family="Calibri" font-size="7.5" fill="rgb(255,255,255)" text-anchor="middle">1</text>
<polygon points="180.7,125.9 188.7,125.9 188.7,131.9 180.7,131.9" fill="rgb(205,0,0)"/><text xml:space="preserve" x="184.7" y="131.733" font-family="Calibri" font-size="7.5" fill="rgb(255,255,255)" text-anchor="middle">3</text>
<polygon points="188.7,125.9 196.7,125.9 196.7,131.9 188.7,131.9" fill="rgb(0,205,0)"/><text xml:space="preserve" x="192.7" y="131.733" font-family="Calibri" font-size="7.5" fill="rgb(255,255,255)" text-anchor="middle">1</text>
<polygon points="196.7,125.9 204.7,125.9 204.7,131.9 196.7,131.9" fill="rgb(0,205,0)"/><text xml:space="preserve" x="200.7" y="131.733" font-family="Calibri" font-size="7.5" fill="rgb(255,255,255)" text-anchor="middle">1</text>
<polygon points="204.7,125.9 212.7,125.9 212.7,131.9 204.7,131.9" fill="rgb(0,205,0)"/><text xml:space="preserve" x="208.7" y="131.733" font-family="Calibri" font-size="7.5" fill="rgb(255,255,255)" text-anchor="middle">1</text>
<polygon points="212.7,125.9 220.7,125.9 220.7,131.9 212.7,131.9" fill="rgb(0,205,0)"/><text xml:space="preserve" x="216.7" y="131.733" font-family="Calibri" font-size="7.5" fill="rgb(255,255,255)" text-anchor="middle">1</text>
<polygon points="220.7,125.9 228.7,125.9 228.7,131.9 220.7,131.9" fill="rgb(0,205,0)"/><text xml:space="preserve" x="224.7" y="131.733" font-family="Calibri" font-size="7.5" fill="rgb(255,255,255)" text-anchor="middle">1</text>
<polygon points="228.7,125.9 236.7,125.9 236.7,131.9 228.7,131.9" fill="rgb(0,205,0)"/><text xml:space="preserve" x="232.7" y="131.733" font-family="Calibri" font-size="7.5" fill="rgb(255,255,255)" text-anchor="middle">1</text>
<polygon points="236.7,125.9 244.7,125.9 244.7,131.9 236.7,131.9" fill="rgb(0,205,0)"/><text xml:space="preserve" x="240.7" y="131.733" font-family="Calibri" font-size="7.5" fill="rgb(255,255,255)" text-anchor="middle">1</text>
<polygon points="254.7,125.9 260.7,125.9 260.7,131.9 254.7,131.9" fill="rgb(0,255,0)"/>
<polygon points="270.7,125.9 276.7,125.9 276.7,131.9 270.7,131.9" fill="rgb(221,0,0)"/>
<polygon points="286.7,125.9 292.7,125.9 292.7,131.9 286.7,131.9" fill="rgb(0,255,0)"/>
<polygon points="302.7,125.9 308.7,125.9 308.7,131.9 302.7,131.9" fill="rgb(0,255,0)"/>
<polygon points="318.7,125.9 324.7,125.9 324.7,131.9 318.7,131.9" fill="rgb(0,255,0)"/>
<polygon points="172.7,131.9 180.7,131.9 180.7,137.9 172.7,137.9" fill="rgb(0,205,0)"/><text xml:space="preserve" x="176.7" y="137.733" font-family="Calibri" font-size="7.5" fill="rgb(255,255,255)" text-anchor="middle">1</text>
<polygon points="180.7,131.9 188.7,131.9 188.7,137.9 180.7,137.9" fill="rgb(205,0,0)"/><text xml:space="preserve" x="184.7" y="137.733" font-family="Calibri" font-size="7.5" fill="rgb(255,255,255)" text-anchor="middle">3</text>
<polygon points="188.7,131.9 196.7,131.9 196.7,137.9 188.7,137.9" fill="rgb(0,205,0)"/><text xml:space="preserve" x="192.7" y="137.733" font-family="Calibri" font-size="7.5" fill="rgb(255,255,255)" text-anchor="middle">1</text>
<polygon points="196.7,131.9 204.7,131.9 204.7,137.9 196.7,137.9" fill="rgb(0,205,0)"/><text xml:space="preserve" x="200.7" y="137.733" font-family="Calibri" font-size="7.5" fill="rgb(255,255,255)" text-anchor="middle">1</text>
<polygon points="204.7,131.9 212.7,131.9 212.7,137.9 204.7,137.9" fill="rgb(0,205,0)"/><text xml:space="preserve" x="208.7" y="137.733" font-family="Calibri" font-size="7.5" fill="rgb(255,255,255)" text-anchor="middle">1</text>
<polygon points="212.7,131.9 220.7,131.9 220.7,137.9 212.7,137.9" fill="rgb(0,205,0)"/><text xml:space="preserve" x="216.7" y="137.733" font-family="Calibri" font-size="7.5" fill="rgb(255,255,255)" text-anchor="middle">1</text>
<polygon points="220.7,131.9 228.7,131.9 228.7,137.9 220.7,137.9" fill="rgb(0,205,0)"/><text xml:space="preserve" x="224.7" y="137.733" font-family="Calibri" font-size="7.5" fill="rgb(255,255,255)" text-anchor="middle">1</text>
<polygon points="228.7,131.9 236.7,131.9 236.7,137.9 228.7,137.9" fill="rgb(0,205,0)"/><text xml:space="preserve" x="232.7" y="137.733" font-family="Calibri" font-size="7.5" fill="rgb(255,255,255)" text-anchor="middle">1</text>
<polygon points="236.7,131.9 244.7,131.9 244.7,137.9 236.7,137.9" fill="rgb(0,205,0)"/><text xml:space="preserve" x="240.7" y="137.733" font-family="Calibri" font-size="7.5" fill="rgb(255,255,255)" text-anchor="middle">1</text>
<polygon points="254.7,131.9 260.7,131.9 260.7,137.9 254.7,137.9" fill="rgb(0,255,0)"/>
<polygon points="270.7,131.9 276.7,131.9 276.7,137.9 270.7,137.9" fill="rgb(20,0,0)"/>
<polygon points="286.7,131.9 292.7,131.9 292.7,137.9 286.7,137.9" fill="rgb(0,255,0)"/>
<polygon points="302.7,131.9 308.7,131.9 308.7,137.9 302.7,137.9" fill="rgb(0,255,0)"/>
<polygon points="318.7,131.9 324.7,131.9 324.7,137.9 318.7,137.9" fill="rgb(0,255,0)"/>
<polygon points="172.7,107.9 244.7,107.9 244.7,137.9 172.7,137.9" fill="none" stroke="black" stroke-width="1"/>
<polygon points="254.7,107.9 260.7,107.9 260.7,137.9 254.7,137.9" fill="none" stroke="black" stroke-width="1"/>
<polygon points="270.7,107.9 276.7,107.9 276.7,137.9 270.7,137.9" fill="none" stroke="black" stroke-width="1"/>
<polygon points="286.7,107.9 292.7,107.9 292.7,137.9 286.7,137.9" fill="none" stroke="black" stroke-width="1"/>
<polygon points="302.7,107.9 308.7,107.9 308.7,137.9 302.7,137.9" fill="none" stroke="black" stroke-width="1"/>
<polygon points="318.7,107.9 324.7,107.9 324.7,137.9 318.7,137.9" fill="none" stroke="black" stroke-width="1"/>
<text xml:space="preserve" x="177.35" y="170.9" font-family="Calibri" font-size="8" text-anchor="middle">ClusterAssignment</text>
<polygon points="147.35,177.9 167.35,177.9 167.35,197.9 147.35,197.9" fill="rgb(0,205,0)"/><polygon points="147.35,177.9 167.35,177.9 167.35,197.9 147.35,197.9" fill="none" stroke="black" stroke-width="1"/><text xml:space="preserve" x="157.35" y="190.733" font-family="Calibri" font-size="7.5" fill="rgb(255,255,255)" text-anchor="middle">1.0</text>
<polygon points="167.35,177.9 187.35,177.9 187.35,197.9 167.35,197.9" fill="rgb(255,255,0)"/><polygon points="167.35,177.9 187.35,177.9 187.35,197.9 167.35,197.9" fill="none" stroke="black" stroke-width="1"/><text xml:space="preserve" x="177.35" y="190.733" font-family="Calibri" font-size="7.5" fill="rgb(0,0,0)" text-anchor="middle">2.0</text>
<polygon points="187.35,177.9 207.35,177.9 207.35,197.9 187.35,197.9" fill="rgb(205,0,0)"/><polygon points="187.35,177.9 207.35,177.9 207.35,197.9 187.35,197.9" fill="none" stroke="black" stroke-width="1"/><text xml:space="preserve" x="197.35" y="190.733" font-family="Calibri" font-size="7.5" fill="rgb(255,255,255)" text-anchor="middle">3.0</text>
<text xml:space="preserve" x="177.35" y="230.9" font-family="Calibri" font-size="8" text-anchor="middle">Expression</text>
<polygon points="147.35,237.9 167.35,237.9 167.35,257.9 147.35,257.9" fill="rgb(0,255,0)"/><polygon points="147.35,237.9 167.35,237.9 167.35,257.9 147.35,257.9" fill="none" stroke="black" stroke-width="1"/><text xml:space="preserve" x="157.35" y="250.733" font-family="Calibri" font-size="7.5" fill="rgb(0,0,0)" text-anchor="middle">0.0</text>
<polygon points="167.35,237.9 187.35,237.9 187.35,257.9 167.35,257.9" fill="rgb(0,0,0)"/><polygon points="167.35,237.9 187.35,237.9 187.35,257.9 167.35,257.9" fill="none" stroke="black" stroke-width="1"/><text xml:space="preserve" x="177.35" y="250.733" font-family="Calibri" font-size="7.5" fill="rgb(255,255,255)" text-anchor="middle">1.0</text>
<polygon points="187.35,237.9 207.35,237.9 207.35,257.9 187.35,257.9" fill="rgb(255,0,0)"/><polygon points="187.35,237.9 207.35,237.9 207.35,257.9 187.35,257.9" fill="none" stroke="black" stroke-width="1"/><text xml:space="preserve" x="197.35" y="250.733" font-family="Calibri" font-size="7.5" fill="rgb(255,255,255)" text-anchor="middle">2.0</text>
<text xml:space="preserve" x="177.35" y="290.9" font-family="Calibri" font-size="8" text-anchor="middle">Missing</text>
<polygon points="147.35,297.9 167.35,297.9 167.35,317.9 147.35,317.9" fill="rgb(105,105,105)"/><polygon points="147.35,297.9 167.35,297.9 167.35,317.9 147.35,317.9" fill="none" stroke="black" stroke-width="1"/><text xml:space="preserve" x="157.35" y="310.733" font-family="Calibri" font-size="7.5" fill="rgb(255,255,255)" text-anchor="middle">0.0</text>
<polygon points="167.35,297.9 187.35,297.9 187.35,317.9 167.35,317.9" fill="rgb(105,105,105)"/><polygon points="167.35,297.9 187.35,297.9 187.35,317.9 167.35,317.9" fill="none" stroke="black" stroke-width="1"/><text xml:space="preserve" x="177.35" y="310.733" font-family="Calibri" font-size="7.5" fill="rgb(255,255,255)" text-anchor="middle">0.0</text>
<polygon points="187.35,297.9 207.35,297.9 207.35,317.9 187.35,317.9" fill="rgb(105,105,105)"/><polygon points="187.35,297.9 207.35,297.9 207.35,317.9 187.35,317.9" fill="none" stroke="black" stroke-width="1"/><text xml:space="preserve" x="197.35" y="310.733" font-family="Calibri" font-size="7.5" fill="rgb(255,255,255)" text-anchor="middle">0.0</text>
</svg>
